<svg width="199" height="46" viewBox="0 0 199 46" fill="none" xmlns="http://www.w3.org/2000/svg">
<path d="M26.3645 25.8128C26.5601 26.2742 26.5952 26.7807 26.4949 27.3775C26.3645 28.0696 26.0636 28.6113 25.5871 29.0325C25.1057 29.4388 24.5841 29.6845 24.0074 29.7397C23.4256 29.7948 22.7185 29.7397 21.886 29.5892L20.4466 29.3084C19.9702 29.2131 19.6844 29.1429 19.579 29.0676C19.4787 28.9974 19.4236 28.8971 19.3985 28.7567C19.3885 28.6514 19.4286 28.2803 19.5289 27.6835L20.3263 23.4206L22.879 23.892C23.9974 24.1077 24.8098 24.3685 25.3113 24.6694C25.8178 24.9703 26.1639 25.3615 26.3645 25.8128ZM26.4999 16.8508C26.0485 16.6 25.1859 16.3593 23.9221 16.1236L21.7656 15.7174L20.8629 20.5169L23.0244 20.9231C24.1528 21.1287 25.0054 21.1939 25.5821 21.1036C26.1589 21.0083 26.6102 20.8027 26.9613 20.4767C27.2973 20.1608 27.523 19.7345 27.6133 19.233C27.7136 18.7114 27.6634 18.255 27.4728 17.8338C27.2923 17.4275 26.9713 17.0915 26.4999 16.8508ZM45.6276 22.8138C45.6276 35.4218 35.4118 45.6276 22.8088 45.6276C10.2108 45.6276 0 35.4218 0 22.8138C0 10.2058 10.2108 0 22.8088 0C35.4118 0 45.6276 10.2058 45.6276 22.8138ZM32.2021 16.7856C31.8159 15.9431 31.164 15.2309 30.2663 14.6441C29.9252 14.4135 29.4889 14.2129 29.0125 14.0273L29.6594 10.5618L26.3294 9.93495L25.7175 13.1747L23.5761 12.7735L24.1879 9.53374L20.8529 8.90685L20.241 12.1516L15.1507 11.1988L14.6442 13.922L15.4215 14.0674C15.9431 14.1577 16.2841 14.273 16.4446 14.4034C16.6151 14.5238 16.7154 14.6793 16.7605 14.8548C16.8057 15.0303 16.7756 15.4064 16.6652 15.9982L14.609 26.9713C14.5037 27.543 14.4034 27.9091 14.2931 28.0546C14.1828 28.2 14.0323 28.3104 13.8317 28.3655C13.6311 28.4207 13.275 28.4006 12.7585 28.2903L11.9761 28.1599L11.4696 30.8731L16.5549 31.8159L15.9531 35.0557L19.2882 35.6826L19.89 32.4428L21.7857 32.7939C21.8709 32.8139 21.9462 32.8189 22.0314 32.839L21.4296 36.0788L24.7597 36.6956L25.4216 33.1901C25.9984 33.18 26.5149 33.1299 26.9713 33.0547C28.2101 32.8089 29.2231 32.3024 30.0205 31.5351C30.8129 30.7828 31.3094 29.8801 31.5 28.8319C31.6655 27.9493 31.6053 27.1168 31.3244 26.3444C31.0386 25.552 30.5822 24.8951 29.9503 24.3635C29.519 23.9923 28.857 23.6012 27.9844 23.1999C28.8971 23.0645 29.6544 22.8288 30.2612 22.4728C30.8731 22.1217 31.3696 21.6804 31.7507 21.1438C32.1369 20.6121 32.3977 20.0153 32.513 19.3684C32.6936 18.5158 32.5883 17.6332 32.2021 16.7856ZM74.3542 27.9342C74.3542 36.1841 68.9579 45.6125 57.5435 45.6125C51.5254 45.6125 48.5163 43.0047 48.5163 38.5061C48.5163 36.9414 48.772 35.3917 49.083 33.8922L54.2235 8.20474H61.7412L58.7371 22.6934H58.8424C60.708 20.4617 63.5616 19.0976 66.676 19.0976C71.972 19.1126 74.3542 23.4206 74.3542 27.9342ZM66.5155 29.4889C66.5155 27.0566 65.4774 25.1308 63.2006 25.1308C60.4974 25.1308 57.8594 27.8841 56.9718 32.2974L56.5054 34.3736C56.4001 35.2061 56.1944 36.0888 56.2446 37.1821C56.2947 38.9875 57.383 39.9805 59.0982 39.9805C63.4112 39.9655 66.5155 33.9524 66.5155 29.4889ZM76.3953 45.0558H83.8679L88.6924 19.6793H81.2199L76.3953 45.0558ZM86.566 8.64106C84.2791 8.64106 82.3032 10.3562 82.258 12.8939C82.258 15.1206 83.8127 16.5298 85.8839 16.5298C88.2762 16.5298 90.2922 14.9701 90.2922 12.3272C90.2972 10.0854 88.7375 8.64106 86.566 8.64106ZM104.52 12.5779L96.8921 14.3533L95.854 19.6843H92.5842L91.546 25.3414H94.7657L92.7898 35.4619C92.4287 37.3877 92.2732 38.7819 92.2732 40.1811C92.2732 43.3457 94.4046 45.6276 98.8631 45.6276C100.468 45.6276 102.329 45.4169 103.271 45.0609L104.164 39.1932C103.482 39.2985 102.765 39.2985 102.088 39.2985C100.473 39.2985 99.9514 38.4058 99.9514 37.162C99.9514 36.2794 100.157 34.9755 100.368 33.9423L102.088 25.3264H107.474L108.572 19.6693H103.176L104.52 12.5779ZM108.793 35.2061C108.793 41.786 113.201 45.5724 119.47 45.5724C122.489 45.5724 125.082 45.0508 126.682 44.2735L126.632 38.5613C125.328 39.0828 123.778 39.5994 121.602 39.5994C118.793 39.5994 116.622 37.8291 116.622 34.3536C116.622 29.5892 119.881 25.0656 125.233 25.0656C126.742 25.0656 127.78 25.3264 128.663 25.6875L130.473 19.9802C129.385 19.5088 127.514 19.0876 125.343 19.0876C115.689 19.1126 108.793 26.1739 108.793 35.2061ZM156.783 29.5441C156.783 38.8321 150.459 45.6276 141.632 45.6276C135.208 45.6276 130.89 41.4249 130.89 35.141C130.89 26.3244 137.008 19.1126 146.04 19.1126C152.846 19.1126 156.783 23.7817 156.783 29.5441ZM149.054 29.5892C149.054 27.2572 148.076 24.7697 145.062 24.7697C140.759 24.7697 138.583 31.0486 138.643 34.9855C138.643 37.9444 140.092 39.9153 142.69 39.9153C146.783 39.9204 149.054 33.9524 149.054 29.5892ZM169.19 8.64106C166.908 8.64106 164.932 10.3562 164.892 12.8939C164.892 15.1206 166.457 16.5298 168.528 16.5298C170.925 16.5298 172.936 14.9701 172.936 12.3272C172.941 10.0854 171.377 8.64106 169.19 8.64106ZM159.035 45.0558H166.497L171.332 19.6793H163.859L159.035 45.0558ZM192.5 19.1126C189.125 19.1126 185.966 20.567 183.584 23.887H183.478L184 19.6843H177.37C177.054 21.9211 176.638 24.7195 176.011 27.9392L172.786 45.0609H180.258L182.385 33.7969C183.423 28.2101 186.282 25.1308 188.724 25.1308C190.595 25.1308 191.217 26.3795 191.217 28.1449C191.217 29.0877 191.111 30.1258 190.946 30.9985L188.308 45.0609H195.775L198.584 30.3264C198.789 29.0827 199 27.1669 199 26.0385C198.99 21.6553 196.653 19.1126 192.5 19.1126Z" fill="white"/>
</svg>
